<svg width="512" height="512" viewBox="0 0 512 512" fill="none" xmlns="http://www.w3.org/2000/svg">
<circle cx="256" cy="256" r="225" fill="#2FA85F"/>
<path d="M368.77 200.931C365.139 199.681 361.377 198.499 357.503 197.38C358.14 194.782 358.724 192.217 359.244 189.696C367.773 148.296 362.196 114.944 343.155 103.963C324.896 93.4335 295.035 104.412 264.877 130.658C261.977 133.181 259.069 135.853 256.162 138.654C254.225 136.801 252.291 135.01 250.363 133.298C218.756 105.234 187.076 93.408 168.052 104.421C149.811 114.98 144.409 146.335 152.086 185.57C152.828 189.359 153.694 193.229 154.674 197.164C150.19 198.437 145.862 199.794 141.72 201.237C104.665 214.156 81 234.404 81 255.405C81 277.096 106.405 298.853 145 312.044C148.046 313.085 151.207 314.07 154.464 315.004C153.406 319.26 152.487 323.43 151.715 327.498C144.395 366.052 150.111 396.665 168.304 407.158C187.095 417.995 218.633 406.856 249.342 380.013C251.769 377.891 254.205 375.64 256.645 373.282C259.808 376.328 262.966 379.21 266.107 381.914C295.853 407.511 325.232 417.847 343.407 407.325C362.18 396.457 368.281 363.571 360.36 323.56C359.755 320.504 359.052 317.382 358.261 314.205C360.476 313.55 362.65 312.874 364.77 312.172C404.894 298.877 431 277.386 431 255.405C431 234.328 406.572 213.944 368.77 200.931ZM360.068 297.979C358.154 298.613 356.19 299.225 354.189 299.819C349.76 285.796 343.781 270.884 336.465 255.478C343.447 240.439 349.194 225.718 353.499 211.786C357.08 212.822 360.555 213.915 363.903 215.068C396.292 226.218 416.048 242.703 416.048 255.405C416.048 268.936 394.712 286.5 360.068 297.979ZM345.693 326.464C349.195 344.156 349.695 360.152 347.375 372.657C345.291 383.893 341.099 391.385 335.915 394.385C324.885 400.77 301.297 392.471 275.859 370.58C272.942 368.07 270.005 365.391 267.058 362.555C276.92 351.769 286.777 339.23 296.396 325.304C313.316 323.803 329.302 321.348 343.798 317.997C344.512 320.877 345.146 323.702 345.693 326.464ZM200.323 393.282C189.546 397.088 180.963 397.197 175.775 394.205C164.735 387.837 160.145 363.258 166.406 330.286C167.123 326.51 167.976 322.632 168.96 318.667C183.298 321.837 199.166 324.119 216.126 325.494C225.811 339.12 235.952 351.646 246.172 362.613C243.939 364.769 241.715 366.821 239.503 368.754C225.924 380.624 212.316 389.046 200.323 393.282ZM149.836 297.896C132.77 292.063 118.676 284.482 109.015 276.209C100.334 268.775 95.9513 261.394 95.9513 255.405C95.9513 242.661 114.952 226.405 146.642 215.356C150.487 214.016 154.512 212.752 158.689 211.565C163.069 225.812 168.814 240.707 175.748 255.769C168.725 271.055 162.898 286.188 158.475 300.601C155.497 299.745 152.612 298.844 149.836 297.896ZM166.76 182.698C160.182 149.083 164.551 123.724 175.543 117.361C187.252 110.582 213.145 120.247 240.434 144.479C242.179 146.027 243.93 147.648 245.686 149.326C235.517 160.245 225.469 172.676 215.87 186.222C199.41 187.748 183.653 190.199 169.166 193.481C168.255 189.817 167.448 186.217 166.76 182.698ZM317.734 219.978C314.271 213.996 310.715 208.155 307.091 202.474C318.258 203.886 328.957 205.76 339.005 208.053C335.988 217.72 332.228 227.829 327.803 238.191C324.628 232.163 321.27 226.086 317.734 219.978ZM256.167 160.011C263.064 167.483 269.97 175.825 276.763 184.876C269.918 184.552 262.988 184.384 256 184.384C249.079 184.384 242.199 184.548 235.396 184.866C242.196 175.899 249.163 167.569 256.167 160.011ZM194.206 220.081C190.746 226.08 187.451 232.124 184.326 238.18C179.972 227.853 176.247 217.699 173.204 207.895C183.19 205.66 193.839 203.833 204.935 202.448C201.259 208.181 197.675 214.065 194.206 220.08V220.081ZM205.255 309.43C193.79 308.151 182.981 306.418 172.998 304.245C176.089 294.265 179.896 283.894 184.342 273.345C187.475 279.396 190.784 285.443 194.265 291.455H194.266C197.811 297.58 201.484 303.579 205.255 309.43ZM256.581 351.854C249.494 344.208 242.426 335.75 235.522 326.652C242.224 326.915 249.056 327.05 256 327.05C263.134 327.05 270.186 326.889 277.128 326.58C270.312 335.842 263.43 344.312 256.581 351.854ZM327.945 272.808C332.623 283.47 336.567 293.787 339.698 303.597C329.55 305.912 318.594 307.776 307.049 309.162C310.683 303.404 314.269 297.463 317.794 291.352C321.359 285.17 324.744 278.978 327.945 272.808ZM304.842 283.883C299.371 293.369 293.754 302.425 288.052 310.973C277.666 311.716 266.936 312.098 256 312.098C245.108 312.098 234.514 311.76 224.311 311.097C218.379 302.437 212.64 293.355 207.204 283.964H207.205C201.783 274.599 196.793 265.155 192.271 255.764C196.792 246.351 201.769 236.897 207.16 227.549L207.158 227.551C212.564 218.178 218.252 209.139 224.129 200.533C234.538 199.746 245.212 199.336 255.999 199.336H256C266.836 199.336 277.523 199.75 287.929 200.543C293.717 209.086 299.367 218.096 304.793 227.47C310.281 236.949 315.322 246.341 319.881 255.552C315.336 264.921 310.306 274.407 304.842 283.883ZM335.686 116.916C347.407 123.675 351.964 150.934 344.601 186.678C344.131 188.959 343.602 191.282 343.027 193.636C328.507 190.286 312.739 187.792 296.23 186.244C286.613 172.548 276.647 160.098 266.643 149.319C269.333 146.731 272.018 144.264 274.693 141.936C300.532 119.449 324.683 110.571 335.686 116.916ZM256 224.152C273.261 224.152 287.254 238.144 287.254 255.405C287.254 272.666 273.261 286.659 256 286.659C238.739 286.659 224.746 272.666 224.746 255.405C224.746 238.144 238.739 224.152 256 224.152Z" fill="#ECF5F0"/>
</svg>
